<?xml version="1.0" encoding="utf-8"?>
<!-- Generator: Adobe Illustrator 22.0.1, SVG Export Plug-In . SVG Version: 6.00 Build 0)  -->
<svg version="1.1" id="Warstwa_1" xmlns="http://www.w3.org/2000/svg" xmlns:xlink="http://www.w3.org/1999/xlink" x="0px" y="0px"
	 viewBox="0 0 24 24" style="enable-background:new 0 0 24 24;" xml:space="preserve">
<style type="text/css">
	.st0{fill:none;}
	.st1{fill:#A0A0A0;}
</style>
<path class="st0" d="M0,0h24v24H0V0z"/>
<path class="st1" d="M22,3H7C6.3,3,5.8,3.3,5.4,3.9L0,12l5.4,8.1C5.8,20.6,6.3,21,7,21h15c1.1,0,2-0.9,2-2V5C24,3.9,23.1,3,22,3z
	 M19,15.6L17.6,17L14,13.4L10.4,17L9,15.6l3.6-3.6L9,8.4L10.4,7l3.6,3.6L17.6,7L19,8.4L15.4,12L19,15.6z"/>
</svg>
